# xmcd CD database file
#
# Track frame offsets:
#	150
#	38917
#	67638
#	108253
#	133741
#	170446
#	205931
#	231360
#	257438
#	289045
#	317212
#
# Disc length: 4647 seconds
#
# Revision: 0
# Processed by: cddbd v1.5.2PL0 Copyright (c) Steve Scherf et al.
# Submitted via: CDex 1.51
#
DISCID=9712250b
DTITLE=Cellar Live One - The First Five Years
DYEAR=1900
DGENRE=Jazz
TTITLE0=The Uptown Quartet - In the Kitchen
TTITLE1=Jodi Proznick Quartet - Help me
TTITLE2=Sharon Minemoto Quintet - Sleeping Peacefully
TTITLE3=Bruno Hubert Trio - Mercy, Mercy, Mercy
TTITLE4=Chad Makela Quartet - Comfort Levels
TTITLE5=Ross Taggart Quartet - Thankfully
TTITLE6=James Danderfer - Cafe and beignets
TTITLE7=Ugetsu - Back at the stage
TTITLE8=Linton Garner Trio - It Could Happen to you
TTITLE9=Two Much Guitar - Zattitude
TTITLE10=B3 Kings - Jingle Bells
EXTD=
EXTT0=
EXTT1=
EXTT2=
EXTT3=
EXTT4=
EXTT5=
EXTT6=
EXTT7=
EXTT8=
EXTT9=
EXTT10=
PLAYORDER=
